# Blender v2.79 (sub 0) OBJ File: ''
# www.blender.org
mtllib cordeobj.mtl
o ecoute
v -1.930623 -1.914688 0.645791
v -1.934016 -1.906187 0.638605
v -1.936022 -1.917183 0.635558
v -0.022077 -2.806417 0.296805
v -0.016242 -2.806424 0.286736
v -0.027825 -2.806506 0.286460
vn -0.0476 0.2748 -0.9603
vn -0.3311 -0.8616 0.3848
vn 0.8874 -0.0345 -0.4598
vn 0.4261 0.6772 0.5999
vn 0.0190 0.3989 -0.9168
vn -0.3799 -0.8988 0.2188
vn 0.4490 0.8550 0.2596
usemtl blanc.001
s off
f 2//1 6//1 3//1
f 6//2 1//2 3//2
f 3//3 2//3 1//3
f 4//4 2//4 1//4
f 2//5 5//5 6//5
f 6//6 4//6 1//6
f 4//7 5//7 2//7
o greement
v 0.059466 1.132441 5.924832
v 0.039465 1.132441 5.924832
v 0.059466 1.112052 5.927865
v 0.039465 1.112052 5.927865
v 1.102070 0.298971 0.327957
v 1.082070 0.298971 0.327957
v 1.102070 0.279005 0.333084
v 1.082070 0.279005 0.333084
v -0.040065 1.131738 5.925210
v -0.060065 1.131738 5.925210
v -0.040065 1.111311 5.927977
v -0.060065 1.111311 5.927977
v -1.081828 0.299446 0.327269
v -1.101578 0.298454 0.330271
v -1.080386 0.279719 0.330240
v -1.100136 0.278728 0.333242
v 0.038656 1.132742 5.923017
v 0.056543 1.141614 5.924190
v 0.029433 1.151048 5.925199
v 0.047320 1.159920 5.926372
v 0.616233 2.021076 0.400301
v 0.598346 2.012204 0.399127
v 0.625456 2.002766 0.398155
v 0.607569 1.993894 0.396982
v -0.031748 1.151332 5.925068
v -0.050425 1.158423 5.926029
v -0.039093 1.132087 5.924314
v -0.057770 1.139177 5.925275
v -0.600647 2.017714 0.392361
v -0.619583 2.023057 0.395955
v -0.606436 1.998701 0.390124
v -0.625372 2.004043 0.393719
v 0.007900 1.123626 5.892624
v 0.008307 1.140521 5.903320
v -0.012708 1.123809 5.893118
v -0.012301 1.140705 5.903814
v -0.071676 5.311186 0.557658
v -0.071840 5.294995 0.545918
v -0.051068 5.311308 0.557203
v -0.051232 5.295116 0.545463
v -0.301403 0.976672 4.812553
v -0.562382 0.840457 3.696775
v -0.825519 0.709489 2.581322
v -0.984835 0.517167 1.458151
v -0.985988 0.537034 1.455222
v -0.826384 0.729496 2.578433
v -0.562959 0.860604 3.693926
v -0.301692 0.996959 4.809744
v -0.321354 0.976474 4.813153
v -0.582282 0.840060 3.697976
v -0.845369 0.708894 2.583123
v -1.004634 0.516374 1.460553
v -0.321642 0.996761 4.810345
v -0.582859 0.860207 3.695127
v -0.846234 0.728901 2.580234
v -1.005788 0.536241 1.457623
vn 0.9834 0.0267 0.1793
vn 0.0000 -0.9891 0.1473
vn -0.9834 -0.0267 -0.1793
vn 0.0000 0.9891 -0.1473
vn 0.9946 0.0439 -0.0938
vn 0.0793 -0.9768 0.1989
vn -0.9936 -0.0581 0.0964
vn -0.0635 0.9776 -0.2008
vn -0.4473 0.8896 0.0926
vn -0.8892 -0.4291 -0.1584
vn 0.4473 -0.8896 -0.0926
vn 0.8892 0.4291 0.1584
vn 0.9516 -0.2732 -0.1406
vn -0.3577 -0.9275 -0.1086
vn -0.9257 0.3475 0.1493
vn 0.2904 0.9495 0.1186
vn 0.0319 -0.0513 0.9982
vn 0.0000 0.1343 0.9909
vn 0.0000 0.1471 0.9891
vn -0.0051 -0.1209 0.9927
vn -0.9997 0.0114 0.0200
vn -0.0218 -0.7884 -0.6148
vn 0.9997 -0.0114 -0.0200
vn 0.0218 0.7884 0.6148
vn 0.0155 -0.5351 0.8447
vn 0.9739 -0.0175 -0.2263
vn 0.9738 -0.0043 -0.2275
vn 0.9730 0.0087 -0.2308
vn 0.9893 0.0219 -0.1443
vn 0.0000 -0.9928 0.1198
vn 0.0134 -0.9929 0.1181
vn 0.0265 -0.9935 0.1104
vn 0.0443 -0.9857 0.1625
vn -0.9740 0.0304 0.2246
vn -0.9740 0.0174 0.2258
vn -0.9734 0.0045 0.2292
vn -0.9886 -0.0358 0.1464
vn -0.0134 0.9930 -0.1171
vn -0.0267 0.9930 -0.1153
vn -0.0395 0.9934 -0.1077
vn -0.0590 0.9852 -0.1607
vn 0.9833 0.0453 0.1764
vn -0.9833 -0.0453 -0.1764
vn 0.9936 0.0581 -0.0964
vn 0.0635 -0.9776 0.2007
vn -0.9946 -0.0439 0.0938
vn -0.0793 0.9768 -0.1990
vn -0.8892 -0.4293 -0.1584
vn 0.8892 0.4293 0.1584
vn 0.9257 -0.3474 -0.1493
vn -0.2904 -0.9495 -0.1187
vn -0.9516 0.2732 0.1407
vn 0.3577 0.9275 0.1085
vn 0.0318 -0.0513 0.9982
vn -0.9999 0.0013 0.0121
vn -0.0090 -0.7885 -0.6150
vn 0.9999 -0.0013 -0.0121
vn 0.0089 0.7885 0.6150
vn 0.0155 -0.5351 0.8446
vn 0.9740 -0.0304 -0.2245
vn 0.9740 -0.0174 -0.2257
vn 0.9734 -0.0045 -0.2291
vn 0.9886 0.0358 -0.1464
vn 0.0134 -0.9930 0.1170
vn 0.0267 -0.9930 0.1152
vn 0.0395 -0.9934 0.1075
vn 0.0590 -0.9853 0.1606
vn -0.9739 0.0175 0.2264
vn -0.9738 0.0043 0.2276
vn -0.9729 -0.0087 0.2309
vn -0.9893 -0.0219 0.1444
vn 0.0000 0.9928 -0.1200
vn -0.0134 0.9929 -0.1182
vn -0.0265 0.9935 -0.1105
vn -0.0443 0.9857 -0.1626
usemtl blanc.001
s off
f 13//8 7//8 9//8
f 14//9 9//9 10//9
f 8//10 14//10 10//10
f 7//11 12//11 8//11
f 50//12 19//12 51//12
f 50//13 22//13 21//13
f 58//14 20//14 22//14
f 51//15 20//15 62//15
f 26//16 28//16 25//16
f 28//17 23//17 25//17
f 30//18 24//18 23//18
f 24//19 27//19 26//19
f 31//20 37//20 35//20
f 34//21 37//21 33//21
f 32//22 38//22 34//22
f 32//23 35//23 36//23
f 31//24 34//24 33//24
f 15//25 18//25 17//25
f 8//26 9//26 7//26
f 23//27 26//27 25//27
f 42//28 44//28 41//28
f 44//29 39//29 41//29
f 46//30 40//30 39//30
f 40//31 43//31 42//31
f 39//32 42//32 41//32
f 15//33 47//33 54//33
f 54//34 48//34 53//34
f 53//35 49//35 52//35
f 49//36 51//36 52//36
f 18//37 47//37 17//37
f 55//38 48//38 47//38
f 56//39 49//39 48//39
f 57//40 50//40 49//40
f 16//41 55//41 18//41
f 59//42 56//42 55//42
f 60//43 57//43 56//43
f 57//44 62//44 58//44
f 16//45 54//45 59//45
f 59//46 53//46 60//46
f 60//47 52//47 61//47
f 61//48 51//48 62//48
f 13//49 11//49 7//49
f 14//9 13//9 9//9
f 8//50 12//50 14//50
f 7//11 11//11 12//11
f 50//51 21//51 19//51
f 50//52 58//52 22//52
f 58//53 62//53 20//53
f 51//54 19//54 20//54
f 26//16 27//16 28//16
f 28//55 30//55 23//55
f 30//18 29//18 24//18
f 24//56 29//56 27//56
f 31//57 33//57 37//57
f 34//58 38//58 37//58
f 32//59 36//59 38//59
f 32//60 31//60 35//60
f 31//61 32//61 34//61
f 15//25 16//25 18//25
f 8//26 10//26 9//26
f 23//27 24//27 26//27
f 42//62 43//62 44//62
f 44//63 46//63 39//63
f 46//64 45//64 40//64
f 40//65 45//65 43//65
f 39//66 40//66 42//66
f 15//67 17//67 47//67
f 54//68 47//68 48//68
f 53//69 48//69 49//69
f 49//70 50//70 51//70
f 18//71 55//71 47//71
f 55//72 56//72 48//72
f 56//73 57//73 49//73
f 57//74 58//74 50//74
f 16//75 59//75 55//75
f 59//76 60//76 56//76
f 60//77 61//77 57//77
f 57//78 61//78 62//78
f 16//79 15//79 54//79
f 59//80 54//80 53//80
f 60//81 53//81 52//81
f 61//82 52//82 51//82
