# Blender v2.79 (sub 0) OBJ File: ''
# www.blender.org
mtllib rock3.mtl
o Cube.003
v 0.244612 0.485828 1.782888
v 0.244613 -0.311757 1.782888
v -0.552972 -0.311758 1.782888
v -0.552973 0.485827 1.782888
v -0.154180 0.087035 0.221260
v -0.154180 0.087035 3.344516
v -0.268581 -0.867505 0.392126
v -0.268580 -1.418827 0.392126
v -0.819902 -1.418828 0.392126
v -0.819903 -0.867506 0.392126
v -0.544242 -1.143166 0.227588
v -0.544242 -1.143166 0.556665
v 0.826878 1.056513 1.137309
v 0.826879 0.552017 1.137309
v 0.322383 0.552016 1.137309
v 0.322382 1.056512 1.137309
v 0.642276 0.870835 0.227588
v 0.506984 0.737693 2.047030
v 1.161538 0.213184 1.357298
v 1.161539 -0.444063 1.357298
v 0.504292 -0.444064 1.357298
v 0.504291 0.213183 1.357298
v 1.006470 -0.151040 0.208021
v 0.659361 -0.079840 2.506576
v 0.871100 -0.612380 0.906860
v 0.871102 -1.310620 0.906860
v 0.172861 -1.310622 0.906860
v 0.172860 -0.612381 0.906860
v 0.535934 -0.983138 0.227063
v 0.508027 -0.939863 1.586658
v 1.781753 -1.017526 0.579041
v 1.781754 -1.568848 0.579041
v 1.230432 -1.568849 0.579041
v 1.230431 -1.017527 0.579041
v 1.506092 -1.293187 0.227588
v 1.506092 -1.293187 0.930494
v -0.290196 -0.084732 1.137309
v -0.290196 -0.589228 1.137309
v -0.794692 -0.589229 1.137309
v -0.794693 -0.084733 1.137309
v -0.578482 -0.376336 0.227588
v -0.506407 -0.297625 2.047030
v 0.193231 1.463907 0.366256
v 0.193232 0.912585 0.366256
v -0.358090 0.912584 0.366256
v -0.358091 1.463906 0.366256
v -0.082429 1.188245 0.201718
v -0.082429 1.188245 0.530795
v 0.207599 0.448815 0.611667
v -0.154181 0.685224 1.782888
v 0.082229 0.323444 2.954109
v 0.444009 0.087036 1.782888
v 0.207600 -0.274744 0.611667
v 0.082229 -0.149374 2.954109
v -0.154179 -0.511154 1.782888
v -0.515959 -0.274746 0.611667
v -0.390589 -0.149375 2.954109
v -0.752369 0.087034 1.782888
v -0.515960 0.448814 0.611667
v -0.390589 0.323443 2.954109
v -0.337496 -0.936420 0.268722
v -0.544242 -0.729675 0.392126
v -0.337496 -0.936420 0.515530
v -0.130750 -1.143166 0.392126
v -0.337495 -1.349912 0.268722
v -0.337495 -1.349912 0.515530
v -0.544241 -1.556658 0.392126
v -0.750987 -1.349912 0.268722
v -0.750987 -1.349912 0.515530
v -0.957733 -1.143167 0.392126
v -0.750988 -0.936421 0.268722
v -0.750988 -0.936421 0.515530
v 0.826257 1.055086 0.455018
v 0.574630 1.182637 1.137309
v 0.701375 0.931816 1.819600
v 0.953003 0.804265 1.137309
v 0.826258 0.653301 0.455018
v 0.701376 0.576857 1.819600
v 0.574631 0.425892 1.137309
v 0.424473 0.653300 0.455018
v 0.346417 0.576856 1.819600
v 0.196258 0.804264 1.137309
v 0.424472 1.055085 0.455018
v 0.346416 0.931816 1.819600
v 1.238438 0.133218 0.495340
v 0.832915 0.377495 1.357298
v 0.920327 0.128838 2.219256
v 1.325851 -0.115439 1.357298
v 1.238439 -0.417497 0.495340
v 0.920328 -0.306318 2.219256
v 0.832916 -0.608375 1.357298
v 0.687724 -0.417498 0.495340
v 0.485172 -0.306318 2.219256
v 0.339980 -0.115441 1.357298
v 0.687723 0.133217 0.495340
v 0.485171 0.128837 2.219256
v 0.797888 -0.712286 0.397012
v 0.521980 -0.437820 0.906860
v 0.769753 -0.687034 1.416709
v 1.045661 -0.961500 0.906860
v 0.797889 -1.243171 0.397012
v 0.769754 -1.203510 1.416709
v 0.521982 -1.485181 0.906860
v 0.267004 -1.243172 0.397012
v 0.253278 -1.203511 1.416709
v -0.001700 -0.961501 0.906860
v 0.267003 -0.712287 0.397012
v 0.253277 -0.687035 1.416709
v 1.712838 -1.086441 0.315451
v 1.506092 -0.879696 0.579041
v 1.712838 -1.086441 0.842631
v 1.919584 -1.293187 0.579041
v 1.712839 -1.499933 0.315451
v 1.712839 -1.499933 0.842631
v 1.506093 -1.706679 0.579041
v 1.299347 -1.499933 0.315451
v 1.299347 -1.499933 0.842631
v 1.092601 -1.293188 0.579041
v 1.299346 -1.086442 0.315451
v 1.299346 -1.086442 0.842631
v -0.368580 -0.165604 0.455018
v -0.542445 0.041392 1.137309
v -0.337937 -0.129984 1.819600
v -0.164072 -0.336980 1.137309
v -0.368579 -0.567389 0.455018
v -0.337936 -0.484943 1.819600
v -0.542444 -0.715353 1.137309
v -0.770365 -0.567390 0.455018
v -0.692895 -0.484943 1.819600
v -0.920816 -0.336981 1.137309
v -0.770365 -0.165605 0.455018
v -0.692896 -0.129984 1.819600
v 0.124316 1.394991 0.242852
v -0.082430 1.601737 0.366256
v 0.124316 1.394991 0.489660
v 0.331062 1.188246 0.366256
v 0.124317 0.981500 0.242852
v 0.124317 0.981500 0.489660
v -0.082429 0.774754 0.366256
v -0.289175 0.981499 0.242852
v -0.289175 0.981499 0.489660
v -0.495921 1.188245 0.366256
v -0.289176 1.394991 0.242852
v -0.289176 1.394991 0.489660
v -0.154181 0.585858 0.915317
v -0.154181 0.474417 2.650459
v 0.344643 0.087035 0.915317
v 0.233203 0.087035 2.650459
v -0.653003 0.087034 0.915317
v -0.541563 0.087034 2.650459
v -0.154179 -0.411788 0.915317
v -0.154179 -0.300348 2.650459
v -0.544242 -0.836876 0.300716
v -0.544242 -0.836876 0.483537
v -0.237951 -1.143166 0.300716
v -0.237951 -1.143166 0.483537
v -0.850532 -1.143167 0.300716
v -0.850532 -1.143167 0.483537
v -0.544241 -1.449456 0.300716
v -0.544241 -1.449456 0.483537
v 0.612211 1.131930 0.631908
v 0.537049 1.037151 1.642710
v 0.902893 0.841249 0.631908
v 0.806919 0.767281 1.642710
v 0.321530 0.841248 0.631908
v 0.267179 0.767280 1.642710
v 0.612212 0.550567 0.631908
v 0.537050 0.497411 1.642710
v 0.929334 0.255600 0.718811
v 0.736496 0.243795 1.995786
v 1.320152 -0.135217 0.718811
v 1.075954 -0.095662 1.995786
v 0.538517 -0.135218 0.718811
v 0.397039 -0.095663 1.995786
v 0.929335 -0.526035 0.718811
v 0.736497 -0.435120 1.995786
v 0.529732 -0.582408 0.529195
v 0.514228 -0.564770 1.284526
v 0.920846 -0.973521 0.529195
v 0.898938 -0.949479 1.284526
v 0.138619 -0.973522 0.529195
v 0.129519 -0.949480 1.284526
v 0.529733 -1.364635 0.529195
v 0.514229 -1.334189 1.284526
v 1.506092 -0.986897 0.383789
v 1.506092 -0.986897 0.774293
v 1.812383 -1.293187 0.383789
v 1.812383 -1.293187 0.774293
v 1.199802 -1.293188 0.383789
v 1.199802 -1.293188 0.774293
v 1.506093 -1.599477 0.383789
v 1.506093 -1.599477 0.774293
v -0.562465 -0.068163 0.631908
v -0.522424 -0.045246 1.642710
v -0.271784 -0.358844 0.631908
v -0.252553 -0.315116 1.642710
v -0.853146 -0.358845 0.631908
v -0.792293 -0.315116 1.642710
v -0.562465 -0.649526 0.631908
v -0.522423 -0.584986 1.642710
v -0.082430 1.494535 0.274846
v -0.082430 1.494535 0.457666
v 0.223861 1.188246 0.274846
v 0.223861 1.188246 0.457666
v -0.388719 1.188245 0.274846
v -0.388719 1.188245 0.457666
v -0.082429 0.881955 0.274846
v -0.082429 0.881955 0.457666
vn 0.4449 0.8898 -0.1019
vn 0.3584 0.9167 0.1768
vn 0.8740 0.4370 0.2124
vn 0.9451 0.3243 -0.0401
vn 0.8898 -0.4449 -0.1019
vn 0.9167 -0.3584 0.1768
vn 0.4370 -0.8740 0.2124
vn 0.3243 -0.9451 -0.0401
vn -0.4449 -0.8898 -0.1019
vn -0.3584 -0.9167 0.1768
vn -0.8740 -0.4370 0.2124
vn -0.9451 -0.3243 -0.0401
vn -0.8898 0.4449 -0.1019
vn -0.9167 0.3584 0.1768
vn -0.4370 0.8740 0.2124
vn -0.3243 0.9451 -0.0401
vn 0.7335 0.0000 -0.6797
vn 0.0000 -0.7335 -0.6797
vn -0.7335 -0.0000 -0.6797
vn -0.0000 0.7335 -0.6797
vn 0.0000 -0.8554 0.5180
vn 0.8554 0.0000 0.5180
vn -0.0000 0.8554 0.5180
vn -0.8554 -0.0000 0.5180
vn 0.3086 0.6172 -0.7238
vn 0.2779 0.7642 0.5820
vn 0.6172 0.3086 0.7238
vn 0.7642 0.2779 -0.5820
vn 0.6172 -0.3086 -0.7238
vn 0.7642 -0.2779 0.5820
vn 0.3086 -0.6172 0.7238
vn 0.2779 -0.7642 -0.5820
vn -0.3086 -0.6172 -0.7238
vn -0.2779 -0.7642 0.5820
vn -0.6172 -0.3086 0.7238
vn -0.7642 -0.2779 -0.5820
vn -0.6172 0.3086 -0.7238
vn -0.7642 0.2779 0.5820
vn -0.3086 0.6172 0.7238
vn -0.2779 0.7642 -0.5820
vn 0.2321 0.0387 -0.9719
vn 0.0387 -0.2321 -0.9719
vn -0.2321 -0.0387 -0.9719
vn -0.0387 0.2321 -0.9719
vn -0.0387 -0.2321 0.9719
vn 0.2321 -0.0387 0.9719
vn 0.0387 0.2321 0.9719
vn -0.2321 0.0387 0.9719
vn 0.4465 0.8930 -0.0564
vn 0.3385 0.9127 0.2291
vn 0.8587 0.4294 0.2796
vn 0.9418 0.3362 -0.0016
vn 0.8879 -0.4440 -0.1205
vn 0.9219 -0.3419 0.1820
vn 0.4416 -0.8832 0.1578
vn 0.3330 -0.9327 -0.1388
vn -0.4335 -0.8669 -0.2461
vn -0.3473 -0.9366 0.0463
vn -0.8906 -0.4453 0.0924
vn -0.9251 -0.3303 -0.1874
vn -0.8789 0.4394 -0.1857
vn -0.9333 0.3461 0.0961
vn -0.4364 0.8728 0.2188
vn -0.3358 0.9405 -0.0522
vn 0.7775 0.0000 -0.6289
vn 0.0000 -0.7227 -0.6912
vn -0.7222 -0.0000 -0.6917
vn -0.0000 0.7770 -0.6295
vn 0.0000 -0.8165 0.5774
vn 0.7602 0.0000 0.6497
vn -0.0000 0.7606 0.6492
vn -0.8169 -0.0000 0.5768
vn 0.4448 0.8897 -0.1027
vn 0.3472 0.9189 0.1871
vn 0.8478 0.4239 0.3187
vn 0.9421 0.3312 0.0533
vn 0.8944 -0.4472 0.0059
vn 0.8914 -0.3368 0.3033
vn 0.4271 -0.8543 0.2963
vn 0.3316 -0.9434 0.0005
vn -0.4399 -0.8798 -0.1799
vn -0.3500 -0.9262 0.1402
vn -0.8905 -0.4453 0.0934
vn -0.9231 -0.3245 -0.2064
vn -0.8586 0.4293 -0.2803
vn -0.9354 0.3534 0.0138
vn -0.4440 0.8881 0.1189
vn -0.3276 0.9318 -0.1562
vn 0.7781 0.0000 -0.6282
vn 0.0000 -0.7332 -0.6800
vn -0.6695 -0.0000 -0.7428
vn -0.0000 0.7109 -0.7033
vn 0.0000 -0.7854 0.6190
vn 0.7402 0.0000 0.6723
vn -0.0000 0.8091 0.5877
vn -0.8551 -0.0000 0.5184
vn 0.4243 0.8486 -0.3162
vn 0.3360 0.9201 0.2015
vn 0.8485 0.4243 0.3162
vn 0.9217 0.3338 -0.1978
vn 0.8610 -0.4305 -0.2708
vn 0.9094 -0.3321 0.2505
vn 0.4199 -0.8397 0.3443
vn 0.3355 -0.9264 -0.1707
vn -0.4290 -0.8580 -0.2827
vn -0.3327 -0.9110 0.2439
vn -0.8506 -0.4253 0.3091
vn -0.9185 -0.3326 -0.2136
vn -0.8451 0.4226 -0.3274
vn -0.9214 0.3365 0.1946
vn -0.4293 0.8587 0.2798
vn -0.3305 0.9128 -0.2399
vn 0.6124 0.1048 -0.7836
vn 0.1059 -0.6184 -0.7787
vn -0.6036 -0.1033 -0.7905
vn -0.1023 0.5978 -0.7950
vn -0.0982 -0.6062 0.7892
vn 0.6070 -0.0984 0.7886
vn 0.1009 0.6231 0.7756
vn -0.6222 0.1008 0.7763
vn 0.4014 0.8028 -0.4408
vn 0.3240 0.8911 0.3177
vn 0.8028 0.4014 0.4408
vn 0.8911 0.3240 -0.3177
vn 0.8028 -0.4014 -0.4408
vn 0.8911 -0.3240 0.3177
vn 0.4014 -0.8028 0.4408
vn 0.3240 -0.8911 -0.3177
vn -0.4014 -0.8028 -0.4408
vn -0.3240 -0.8911 0.3177
vn -0.8028 -0.4014 0.4408
vn -0.8911 -0.3240 -0.3177
vn -0.8028 0.4014 -0.4408
vn -0.8911 0.3240 0.3177
vn -0.4014 0.8028 0.4408
vn -0.3240 0.8911 -0.3177
vn 0.4530 0.0755 -0.8883
vn 0.0755 -0.4530 -0.8883
vn -0.4530 -0.0755 -0.8883
vn -0.0755 0.4530 -0.8883
vn -0.0755 -0.4530 0.8883
vn 0.4530 -0.0755 0.8883
vn 0.0755 0.4530 0.8883
vn -0.4530 0.0755 0.8883
vn 0.4375 0.8751 -0.2070
vn 0.3464 0.9341 0.0862
vn 0.8861 0.4431 0.1360
vn 0.9316 0.3326 -0.1465
vn 0.8816 -0.4408 -0.1688
vn 0.9311 -0.3453 0.1179
vn 0.4374 -0.8748 0.2083
vn 0.3354 -0.9396 -0.0686
vn -0.4450 -0.8901 -0.0983
vn -0.3413 -0.9202 0.1916
vn -0.8684 -0.4342 0.2396
vn -0.9409 -0.3359 -0.0443
vn -0.8859 0.4429 -0.1378
vn -0.9254 0.3432 0.1608
vn -0.4408 0.8816 0.1686
vn -0.3337 0.9347 -0.1227
vn 0.7349 0.0000 -0.6782
vn 0.0000 -0.7657 -0.6432
vn -0.7643 -0.0000 -0.6448
vn 0.0000 -0.7719 0.6358
vn 0.8036 0.0000 0.5952
vn -0.0000 0.8050 0.5933
vn -0.7733 -0.0000 0.6341
vn 0.3243 0.9451 -0.0401
vn 0.4370 0.8740 0.2124
vn 0.9167 0.3584 0.1768
vn 0.8898 0.4449 -0.1019
vn 0.9451 -0.3243 -0.0401
vn 0.8740 -0.4370 0.2124
vn 0.3584 -0.9167 0.1768
vn 0.4449 -0.8898 -0.1019
vn -0.3243 -0.9451 -0.0401
vn -0.4370 -0.8740 0.2124
vn -0.9167 -0.3584 0.1768
vn -0.8898 -0.4449 -0.1019
vn -0.9451 0.3243 -0.0401
vn -0.8740 0.4370 0.2124
vn -0.3584 0.9167 0.1768
vn -0.4449 0.8898 -0.1019
vn 0.9115 0.0000 -0.4114
vn 0.0000 -0.9115 -0.4114
vn -0.9115 -0.0000 -0.4114
vn -0.0000 0.9115 -0.4114
vn 0.0000 -0.8954 0.4452
vn 0.8954 0.0000 0.4452
vn -0.0000 0.8954 0.4452
vn -0.8954 -0.0000 0.4452
vn 0.2779 0.7642 -0.5820
vn 0.3086 0.6172 0.7238
vn 0.7642 0.2779 0.5820
vn 0.6172 0.3086 -0.7238
vn 0.7642 -0.2779 -0.5820
vn 0.6172 -0.3086 0.7238
vn 0.2779 -0.7642 0.5820
vn 0.3086 -0.6172 -0.7238
vn -0.2779 -0.7642 -0.5820
vn -0.3086 -0.6172 0.7238
vn -0.7642 -0.2779 0.5820
vn -0.6172 -0.3086 -0.7238
vn -0.7642 0.2779 -0.5820
vn -0.6172 0.3086 0.7238
vn -0.2779 0.7642 0.5820
vn -0.3086 0.6172 -0.7238
vn 0.2321 -0.0387 -0.9719
vn -0.0387 -0.2321 -0.9719
vn -0.2321 0.0387 -0.9719
vn 0.0387 0.2321 -0.9719
vn 0.0387 -0.2321 0.9719
vn 0.2321 0.0387 0.9719
vn -0.0387 0.2321 0.9719
vn -0.2321 -0.0387 0.9719
vn 0.3362 0.9418 -0.0023
vn 0.4294 0.8589 0.2792
vn 0.9125 0.3384 0.2297
vn 0.8930 0.4465 -0.0559
vn 0.9406 -0.3358 -0.0507
vn 0.8725 -0.4362 0.2203
vn 0.3460 -0.9331 0.0976
vn 0.4396 -0.8791 -0.1842
vn -0.3303 -0.9252 -0.1868
vn -0.4453 -0.8906 0.0929
vn -0.9366 -0.3473 0.0456
vn -0.8668 -0.4334 -0.2466
vn -0.9325 0.3329 -0.1402
vn -0.8834 0.4417 0.1563
vn -0.3420 0.9222 0.1806
vn -0.4439 0.8877 -0.1221
vn 0.9176 0.0000 -0.3975
vn 0.0000 -0.8647 -0.5022
vn -0.8643 -0.0000 -0.5030
vn -0.0000 0.9172 -0.3984
vn 0.0000 -0.9122 0.4097
vn 0.8588 0.0000 0.5124
vn -0.0000 0.8592 0.5116
vn -0.9126 -0.0000 0.4088
vn 0.3311 0.9418 -0.0578
vn 0.4334 0.8667 0.2469
vn 0.8969 0.3389 0.2841
vn 0.8942 0.4471 -0.0218
vn 0.9408 -0.3307 0.0737
vn 0.8405 -0.4202 0.3420
vn 0.3430 -0.9079 0.2411
vn 0.4467 -0.8934 -0.0478
vn -0.3300 -0.9388 -0.0992
vn -0.4405 -0.8810 0.1725
vn -0.9349 -0.3532 0.0357
vn -0.8647 -0.4324 -0.2555
vn -0.9191 0.3231 -0.2256
vn -0.8925 0.4462 0.0659
vn -0.3522 0.9322 0.0834
vn -0.4350 0.8701 -0.2318
vn 0.9392 0.0000 -0.3434
vn 0.0000 -0.8995 -0.4369
vn -0.8317 -0.0000 -0.5553
vn -0.0000 0.8771 -0.4803
vn 0.0000 -0.8664 0.4994
vn 0.8206 0.0000 0.5715
vn -0.0000 0.8892 0.4574
vn -0.9303 -0.0000 0.3669
vn 0.3316 0.9157 -0.2270
vn 0.4272 0.8544 0.2960
vn 0.9140 0.3338 0.2306
vn 0.8544 0.4272 -0.2960
vn 0.9254 -0.3351 -0.1772
vn 0.8411 -0.4205 0.3401
vn 0.3315 -0.9079 0.2566
vn 0.4311 -0.8621 -0.2663
vn -0.3347 -0.9242 -0.1841
vn -0.4223 -0.8446 0.3290
vn -0.9173 -0.3350 0.2151
vn -0.8523 -0.4262 -0.3031
vn -0.9142 0.3311 -0.2337
vn -0.8575 0.4288 0.2843
vn -0.3369 0.9225 0.1882
vn -0.4219 0.8438 -0.3317
vn 0.6156 -0.1054 -0.7810
vn -0.1055 -0.6163 -0.7804
vn -0.6005 0.1028 -0.7930
vn 0.1027 0.5998 -0.7935
vn 0.0979 -0.6043 0.7907
vn 0.6101 0.0988 0.7862
vn -0.1013 0.6251 0.7740
vn -0.6191 -0.1003 0.7788
vn 0.3240 0.8911 -0.3177
vn 0.4014 0.8028 0.4408
vn 0.8911 0.3240 0.3177
vn 0.8028 0.4014 -0.4408
vn 0.8911 -0.3240 -0.3177
vn 0.8028 -0.4014 0.4408
vn 0.3240 -0.8911 0.3177
vn 0.4014 -0.8028 -0.4408
vn -0.3240 -0.8911 -0.3177
vn -0.4014 -0.8028 0.4408
vn -0.8911 -0.3240 0.3177
vn -0.8028 -0.4014 -0.4408
vn -0.8911 0.3240 -0.3177
vn -0.8028 0.4014 0.4408
vn -0.3240 0.8911 0.3177
vn -0.4014 0.8028 -0.4408
vn 0.4530 -0.0755 -0.8883
vn -0.0755 -0.4530 -0.8883
vn -0.4530 0.0755 -0.8883
vn 0.0755 0.4530 -0.8883
vn 0.0755 -0.4530 0.8883
vn 0.4530 0.0755 0.8883
vn -0.0755 0.4530 0.8883
vn -0.4530 -0.0755 0.8883
vn 0.3325 0.9313 -0.1486
vn 0.4432 0.8863 0.1344
vn 0.9339 0.3463 0.0883
vn 0.8753 0.4377 -0.2055
vn 0.9352 -0.3339 -0.1181
vn 0.8809 -0.4404 0.1733
vn 0.3429 -0.9247 0.1653
vn 0.4432 -0.8865 -0.1330
vn -0.3359 -0.9409 -0.0421
vn -0.4340 -0.8680 0.2411
vn -0.9206 -0.3414 0.1895
vn -0.8900 -0.4450 -0.0999
vn -0.9393 0.3353 -0.0732
vn -0.8757 0.4378 0.2037
vn -0.3455 0.9316 0.1133
vn -0.4404 0.8809 -0.1735
vn 0.8772 0.0000 -0.4800
vn 0.0000 -0.9070 -0.4211
vn -0.9057 -0.0000 -0.4239
vn -0.0000 0.8759 -0.4825
vn 0.0000 -0.8704 0.4923
vn 0.9006 0.0000 0.4347
vn -0.0000 0.9019 0.4320
vn -0.8718 -0.0000 0.4899
usemtl Material.002
s off
f 1//1 145//1 50//1
f 1//2 146//2 51//2
f 1//3 148//3 52//3
f 1//4 147//4 49//4
f 2//5 147//5 52//5
f 2//6 148//6 54//6
f 2//7 152//7 55//7
f 2//8 151//8 53//8
f 3//9 151//9 55//9
f 3//10 152//10 57//10
f 3//11 150//11 58//11
f 3//12 149//12 56//12
f 4//13 149//13 58//13
f 4//14 150//14 60//14
f 4//15 146//15 50//15
f 4//16 145//16 59//16
f 49//17 53//17 5//17
f 53//18 56//18 5//18
f 56//19 59//19 5//19
f 59//20 49//20 5//20
f 57//21 54//21 6//21
f 54//22 51//22 6//22
f 51//23 60//23 6//23
f 60//24 57//24 6//24
f 7//25 153//25 62//25
f 7//26 154//26 63//26
f 7//27 156//27 64//27
f 7//28 155//28 61//28
f 8//29 155//29 64//29
f 8//30 156//30 66//30
f 8//31 160//31 67//31
f 8//32 159//32 65//32
f 9//33 159//33 67//33
f 9//34 160//34 69//34
f 9//35 158//35 70//35
f 9//36 157//36 68//36
f 10//37 157//37 70//37
f 10//38 158//38 72//38
f 10//39 154//39 62//39
f 10//40 153//40 71//40
f 11//41 155//41 65//41
f 11//42 159//42 68//42
f 11//43 157//43 71//43
f 11//44 153//44 61//44
f 12//45 160//45 66//45
f 12//46 156//46 63//46
f 12//47 154//47 72//47
f 12//48 158//48 69//48
f 13//49 161//49 74//49
f 13//50 162//50 75//50
f 13//51 164//51 76//51
f 13//52 163//52 73//52
f 14//53 163//53 76//53
f 14//54 164//54 78//54
f 14//55 168//55 79//55
f 14//56 167//56 77//56
f 15//57 167//57 79//57
f 15//58 168//58 81//58
f 15//59 166//59 82//59
f 15//60 165//60 80//60
f 16//61 165//61 82//61
f 16//62 166//62 84//62
f 16//63 162//63 74//63
f 16//64 161//64 83//64
f 73//65 77//65 17//65
f 77//66 80//66 17//66
f 80//67 83//67 17//67
f 83//68 73//68 17//68
f 81//69 78//69 18//69
f 78//70 75//70 18//70
f 75//71 84//71 18//71
f 84//72 81//72 18//72
f 19//73 169//73 86//73
f 19//74 170//74 87//74
f 19//75 172//75 88//75
f 19//76 171//76 85//76
f 20//77 171//77 88//77
f 20//78 172//78 90//78
f 20//79 176//79 91//79
f 20//80 175//80 89//80
f 21//81 175//81 91//81
f 21//82 176//82 93//82
f 21//83 174//83 94//83
f 21//84 173//84 92//84
f 22//85 173//85 94//85
f 22//86 174//86 96//86
f 22//87 170//87 86//87
f 22//88 169//88 95//88
f 85//89 89//89 23//89
f 89//90 92//90 23//90
f 92//91 95//91 23//91
f 95//92 85//92 23//92
f 93//93 90//93 24//93
f 90//94 87//94 24//94
f 87//95 96//95 24//95
f 96//96 93//96 24//96
f 25//97 177//97 98//97
f 25//98 178//98 99//98
f 25//99 180//99 100//99
f 25//100 179//100 97//100
f 26//101 179//101 100//101
f 26//102 180//102 102//102
f 26//103 184//103 103//103
f 26//104 183//104 101//104
f 27//105 183//105 103//105
f 27//106 184//106 105//106
f 27//107 182//107 106//107
f 27//108 181//108 104//108
f 28//109 181//109 106//109
f 28//110 182//110 108//110
f 28//111 178//111 98//111
f 28//112 177//112 107//112
f 29//113 179//113 101//113
f 29//114 183//114 104//114
f 29//115 181//115 107//115
f 29//116 177//116 97//116
f 30//117 184//117 102//117
f 30//118 180//118 99//118
f 30//119 178//119 108//119
f 30//120 182//120 105//120
f 31//121 185//121 110//121
f 31//122 186//122 111//122
f 31//123 188//123 112//123
f 31//124 187//124 109//124
f 32//125 187//125 112//125
f 32//126 188//126 114//126
f 32//127 192//127 115//127
f 32//128 191//128 113//128
f 33//129 191//129 115//129
f 33//130 192//130 117//130
f 33//131 190//131 118//131
f 33//132 189//132 116//132
f 34//133 189//133 118//133
f 34//134 190//134 120//134
f 34//135 186//135 110//135
f 34//136 185//136 119//136
f 35//137 187//137 113//137
f 35//138 191//138 116//138
f 35//139 189//139 119//139
f 35//140 185//140 109//140
f 36//141 192//141 114//141
f 36//142 188//142 111//142
f 36//143 186//143 120//143
f 36//144 190//144 117//144
f 37//145 193//145 122//145
f 37//146 194//146 123//146
f 37//147 196//147 124//147
f 37//148 195//148 121//148
f 38//149 195//149 124//149
f 38//150 196//150 126//150
f 38//151 200//151 127//151
f 38//152 199//152 125//152
f 39//153 199//153 127//153
f 39//154 200//154 129//154
f 39//155 198//155 130//155
f 39//156 197//156 128//156
f 40//157 197//157 130//157
f 40//158 198//158 132//158
f 40//159 194//159 122//159
f 40//160 193//160 131//160
f 121//161 125//161 41//161
f 125//162 128//162 41//162
f 128//163 131//163 41//163
f 131//20 121//20 41//20
f 129//164 126//164 42//164
f 126//165 123//165 42//165
f 123//166 132//166 42//166
f 132//167 129//167 42//167
f 43//25 201//25 134//25
f 43//26 202//26 135//26
f 43//27 204//27 136//27
f 43//28 203//28 133//28
f 44//29 203//29 136//29
f 44//30 204//30 138//30
f 44//31 208//31 139//31
f 44//32 207//32 137//32
f 45//33 207//33 139//33
f 45//34 208//34 141//34
f 45//35 206//35 142//35
f 45//36 205//36 140//36
f 46//37 205//37 142//37
f 46//38 206//38 144//38
f 46//39 202//39 134//39
f 46//40 201//40 143//40
f 47//41 203//41 137//41
f 47//42 207//42 140//42
f 47//43 205//43 143//43
f 47//44 201//44 133//44
f 48//45 208//45 138//45
f 48//46 204//46 135//46
f 48//47 202//47 144//47
f 48//48 206//48 141//48
f 1//168 49//168 145//168
f 1//169 50//169 146//169
f 1//170 51//170 148//170
f 1//171 52//171 147//171
f 2//172 53//172 147//172
f 2//173 52//173 148//173
f 2//174 54//174 152//174
f 2//175 55//175 151//175
f 3//176 56//176 151//176
f 3//177 55//177 152//177
f 3//178 57//178 150//178
f 3//179 58//179 149//179
f 4//180 59//180 149//180
f 4//181 58//181 150//181
f 4//182 60//182 146//182
f 4//183 50//183 145//183
f 49//184 147//184 53//184
f 53//185 151//185 56//185
f 56//186 149//186 59//186
f 59//187 145//187 49//187
f 57//188 152//188 54//188
f 54//189 148//189 51//189
f 51//190 146//190 60//190
f 60//191 150//191 57//191
f 7//192 61//192 153//192
f 7//193 62//193 154//193
f 7//194 63//194 156//194
f 7//195 64//195 155//195
f 8//196 65//196 155//196
f 8//197 64//197 156//197
f 8//198 66//198 160//198
f 8//199 67//199 159//199
f 9//200 68//200 159//200
f 9//201 67//201 160//201
f 9//202 69//202 158//202
f 9//203 70//203 157//203
f 10//204 71//204 157//204
f 10//205 70//205 158//205
f 10//206 72//206 154//206
f 10//207 62//207 153//207
f 11//208 61//208 155//208
f 11//209 65//209 159//209
f 11//210 68//210 157//210
f 11//211 71//211 153//211
f 12//212 69//212 160//212
f 12//213 66//213 156//213
f 12//214 63//214 154//214
f 12//215 72//215 158//215
f 13//216 73//216 161//216
f 13//217 74//217 162//217
f 13//218 75//218 164//218
f 13//219 76//219 163//219
f 14//220 77//220 163//220
f 14//221 76//221 164//221
f 14//222 78//222 168//222
f 14//223 79//223 167//223
f 15//224 80//224 167//224
f 15//225 79//225 168//225
f 15//226 81//226 166//226
f 15//227 82//227 165//227
f 16//228 83//228 165//228
f 16//229 82//229 166//229
f 16//230 84//230 162//230
f 16//231 74//231 161//231
f 73//232 163//232 77//232
f 77//233 167//233 80//233
f 80//234 165//234 83//234
f 83//235 161//235 73//235
f 81//236 168//236 78//236
f 78//237 164//237 75//237
f 75//238 162//238 84//238
f 84//239 166//239 81//239
f 19//240 85//240 169//240
f 19//241 86//241 170//241
f 19//242 87//242 172//242
f 19//243 88//243 171//243
f 20//244 89//244 171//244
f 20//245 88//245 172//245
f 20//246 90//246 176//246
f 20//247 91//247 175//247
f 21//248 92//248 175//248
f 21//249 91//249 176//249
f 21//250 93//250 174//250
f 21//251 94//251 173//251
f 22//252 95//252 173//252
f 22//253 94//253 174//253
f 22//254 96//254 170//254
f 22//255 86//255 169//255
f 85//256 171//256 89//256
f 89//257 175//257 92//257
f 92//258 173//258 95//258
f 95//259 169//259 85//259
f 93//260 176//260 90//260
f 90//261 172//261 87//261
f 87//262 170//262 96//262
f 96//263 174//263 93//263
f 25//264 97//264 177//264
f 25//265 98//265 178//265
f 25//266 99//266 180//266
f 25//267 100//267 179//267
f 26//268 101//268 179//268
f 26//269 100//269 180//269
f 26//270 102//270 184//270
f 26//271 103//271 183//271
f 27//272 104//272 183//272
f 27//273 103//273 184//273
f 27//274 105//274 182//274
f 27//275 106//275 181//275
f 28//276 107//276 181//276
f 28//277 106//277 182//277
f 28//278 108//278 178//278
f 28//279 98//279 177//279
f 29//280 97//280 179//280
f 29//281 101//281 183//281
f 29//282 104//282 181//282
f 29//283 107//283 177//283
f 30//284 105//284 184//284
f 30//285 102//285 180//285
f 30//286 99//286 178//286
f 30//287 108//287 182//287
f 31//288 109//288 185//288
f 31//289 110//289 186//289
f 31//290 111//290 188//290
f 31//291 112//291 187//291
f 32//292 113//292 187//292
f 32//293 112//293 188//293
f 32//294 114//294 192//294
f 32//295 115//295 191//295
f 33//296 116//296 191//296
f 33//297 115//297 192//297
f 33//298 117//298 190//298
f 33//299 118//299 189//299
f 34//300 119//300 189//300
f 34//301 118//301 190//301
f 34//302 120//302 186//302
f 34//303 110//303 185//303
f 35//304 109//304 187//304
f 35//305 113//305 191//305
f 35//306 116//306 189//306
f 35//307 119//307 185//307
f 36//308 117//308 192//308
f 36//309 114//309 188//309
f 36//310 111//310 186//310
f 36//311 120//311 190//311
f 37//312 121//312 193//312
f 37//313 122//313 194//313
f 37//314 123//314 196//314
f 37//315 124//315 195//315
f 38//316 125//316 195//316
f 38//317 124//317 196//317
f 38//318 126//318 200//318
f 38//319 127//319 199//319
f 39//320 128//320 199//320
f 39//321 127//321 200//321
f 39//322 129//322 198//322
f 39//323 130//323 197//323
f 40//324 131//324 197//324
f 40//325 130//325 198//325
f 40//326 132//326 194//326
f 40//327 122//327 193//327
f 121//328 195//328 125//328
f 125//329 199//329 128//329
f 128//330 197//330 131//330
f 131//331 193//331 121//331
f 129//332 200//332 126//332
f 126//333 196//333 123//333
f 123//334 194//334 132//334
f 132//335 198//335 129//335
f 43//192 133//192 201//192
f 43//193 134//193 202//193
f 43//194 135//194 204//194
f 43//195 136//195 203//195
f 44//196 137//196 203//196
f 44//197 136//197 204//197
f 44//198 138//198 208//198
f 44//199 139//199 207//199
f 45//200 140//200 207//200
f 45//201 139//201 208//201
f 45//202 141//202 206//202
f 45//203 142//203 205//203
f 46//204 143//204 205//204
f 46//205 142//205 206//205
f 46//206 144//206 202//206
f 46//207 134//207 201//207
f 47//208 133//208 203//208
f 47//209 137//209 207//209
f 47//210 140//210 205//210
f 47//211 143//211 201//211
f 48//212 141//212 208//212
f 48//213 138//213 204//213
f 48//214 135//214 202//214
f 48//215 144//215 206//215
