# Blender v2.79 (sub 0) OBJ File: 'rock.blend'
# www.blender.org
mtllib rock.mtl
o Cube
v -0.279151 0.477274 -0.143137
v 0.305932 0.467582 -0.093642
v 0.281479 -0.468353 -0.065551
v -0.302481 -0.440601 -0.077868
v -0.198903 0.376572 0.134586
v 0.275707 0.364235 0.165469
v 0.271027 -0.411862 0.269605
v -0.216309 -0.392541 0.297014
v -0.290590 0.381759 -0.115818
v -0.302171 0.268579 -0.108106
v -0.336392 0.144853 -0.128891
v -0.388199 0.031536 -0.137925
v -0.408601 -0.070838 -0.113395
v -0.394499 -0.164065 -0.074538
v -0.348958 -0.248648 -0.069030
v -0.312181 -0.337230 -0.067035
v 0.320284 0.367352 -0.078358
v 0.332334 0.266825 -0.074068
v 0.328528 0.165775 -0.091189
v 0.314306 0.065103 -0.103436
v 0.306490 -0.032481 -0.085696
v 0.308287 -0.132578 -0.052198
v 0.316702 -0.234510 -0.052566
v 0.306294 -0.352888 -0.053077
v -0.221434 0.294504 0.160473
v -0.245645 0.203313 0.228095
v -0.270487 0.098119 0.285579
v -0.301091 0.003271 0.310413
v -0.313115 -0.084595 0.298305
v -0.300443 -0.161951 0.315969
v -0.268769 -0.234218 0.313334
v -0.236918 -0.311351 0.308847
v 0.287339 0.275661 0.186585
v 0.304490 0.198651 0.228087
v 0.309389 0.117795 0.252791
v 0.310278 0.037474 0.269440
v 0.305510 -0.045835 0.281993
v 0.274467 -0.143321 0.283796
v 0.271110 -0.238374 0.276317
v 0.259606 -0.331458 0.266686
v -0.161713 0.481955 -0.148588
v -0.049962 0.517807 -0.151721
v 0.047490 0.527698 -0.137719
v 0.135845 0.518569 -0.126702
v 0.213870 0.481491 -0.111479
v 0.167948 -0.487151 -0.053084
v 0.058101 -0.492822 -0.048848
v -0.037493 -0.488748 -0.050846
v -0.124341 -0.471353 -0.063952
v -0.211959 -0.453930 -0.073344
v -0.105706 0.417457 0.145477
v -0.006859 0.449872 0.146925
v 0.079044 0.461323 0.153142
v 0.151824 0.445563 0.164432
v 0.216742 0.405775 0.164437
v 0.188819 -0.436960 0.289554
v 0.099665 -0.440784 0.299923
v 0.011208 -0.437688 0.307783
v -0.069576 -0.427702 0.307015
v -0.144519 -0.413967 0.307015
v -0.145277 0.341420 0.155778
v -0.035147 0.393088 0.165103
v 0.071663 0.407569 0.175347
v 0.163429 0.379693 0.170580
v 0.224321 0.316105 0.176777
v -0.176574 0.241648 0.304886
v -0.093111 0.313429 0.376231
v 0.050988 0.369303 0.411641
v 0.173689 0.298332 0.341205
v 0.246172 0.230097 0.289492
v -0.208972 0.119642 0.381740
v -0.139409 0.160153 0.456479
v 0.005531 0.216307 0.541048
v 0.173162 0.177495 0.414716
v 0.251576 0.137518 0.331947
v -0.249163 0.014189 0.423450
v -0.181468 0.039844 0.524400
v -0.044572 0.075875 0.617488
v 0.147656 0.068840 0.508419
v 0.251221 0.049375 0.381008
v -0.253371 -0.084853 0.361868
v -0.219969 -0.084064 0.571199
v -0.136470 -0.093934 0.625349
v 0.077267 -0.076725 0.587020
v 0.214760 -0.062751 0.419567
v -0.238296 -0.170345 0.358665
v -0.178999 -0.197314 0.464254
v -0.095647 -0.232545 0.505823
v 0.087644 -0.206728 0.450974
v 0.203231 -0.156793 0.327444
v -0.204132 -0.254351 0.354131
v -0.144411 -0.314095 0.434992
v -0.038837 -0.343066 0.415852
v 0.110378 -0.336825 0.402786
v 0.200067 -0.263397 0.312168
v -0.172363 -0.340212 0.347277
v -0.088673 -0.372774 0.360550
v 0.004594 -0.384575 0.352964
v 0.080218 -0.392650 0.318856
v 0.184107 -0.380778 0.299562
v 0.208155 0.349658 -0.091371
v 0.112791 0.361806 -0.133075
v 0.019564 0.369360 -0.150539
v -0.075136 0.360903 -0.142891
v -0.171806 0.354291 -0.118670
v 0.211498 0.252446 -0.109242
v 0.113932 0.263459 -0.161244
v 0.009112 0.270823 -0.186780
v -0.091058 0.261200 -0.169738
v -0.181858 0.248913 -0.138552
v 0.209724 0.156339 -0.126019
v 0.111046 0.161809 -0.177325
v 0.005641 0.169952 -0.220224
v -0.110553 0.157037 -0.196762
v -0.219678 0.141081 -0.158264
v 0.193357 0.059588 -0.131585
v 0.095022 0.058913 -0.194683
v -0.014453 0.057837 -0.251121
v -0.136060 0.049095 -0.220219
v -0.250125 0.038937 -0.172687
v 0.192900 -0.033458 -0.120972
v 0.085196 -0.042517 -0.188268
v -0.031285 -0.053898 -0.240437
v -0.156269 -0.057717 -0.201746
v -0.270050 -0.060519 -0.150670
v 0.188405 -0.126966 -0.090133
v 0.089457 -0.141043 -0.150809
v -0.020306 -0.157175 -0.199482
v -0.141129 -0.153867 -0.161342
v -0.255045 -0.149865 -0.114887
v 0.201084 -0.226440 -0.089131
v 0.101668 -0.250267 -0.148791
v -0.006826 -0.256855 -0.176808
v -0.122658 -0.251294 -0.142150
v -0.230428 -0.236758 -0.102021
v 0.188855 -0.342511 -0.088026
v 0.081381 -0.356970 -0.112962
v -0.020758 -0.353798 -0.115640
v -0.113610 -0.346388 -0.120928
v -0.201866 -0.327424 -0.093446
v -0.266751 0.472620 0.031430
v 0.313779 0.465564 0.070974
v 0.303159 -0.490441 0.136677
v -0.297529 -0.460751 0.140966
v -0.267313 0.354711 0.038375
v -0.285642 0.242861 0.047055
v -0.344260 0.135422 0.060735
v -0.399824 0.022875 0.088115
v -0.401111 -0.084898 0.101120
v -0.386149 -0.178943 0.130607
v -0.344465 -0.265065 0.135168
v -0.304503 -0.355702 0.140343
v 0.323901 0.344349 0.075452
v 0.334429 0.246460 0.081087
v 0.347432 0.160907 0.079376
v 0.344178 0.061460 0.083221
v 0.335675 -0.042123 0.109647
v 0.313867 -0.151725 0.129758
v 0.319326 -0.261818 0.129676
v 0.306499 -0.375324 0.132950
v 0.189802 -0.505748 0.146057
v 0.082553 -0.511457 0.148001
v -0.018759 -0.508089 0.148778
v -0.111996 -0.492847 0.141783
v -0.203672 -0.475711 0.140236
v -0.153427 0.501798 0.021342
v -0.039717 0.542924 0.015192
v 0.061515 0.555160 0.026453
v 0.149812 0.541529 0.039091
v 0.230133 0.503345 0.058576
vn -0.0695 -0.2247 -0.9719
vn 0.3513 0.0838 0.9325
vn 0.2177 0.7038 0.6762
vn 0.9690 -0.0201 0.2461
vn -0.1367 -0.8796 0.4556
vn -0.9973 -0.0660 0.0310
vn -0.9883 0.0136 0.1516
vn -0.9765 0.1703 0.1322
vn -0.8554 0.4886 0.1721
vn -0.8991 0.4367 -0.0295
vn -0.9992 0.0163 0.0360
vn -0.9885 -0.1480 0.0295
vn -0.8997 -0.4363 -0.0153
vn -0.9150 -0.4035 -0.0021
vn 0.8862 0.0908 0.4544
vn 0.9185 0.1205 0.3766
vn 0.9601 0.1411 0.2414
vn 0.9777 -0.0239 0.2085
vn 0.9840 -0.0363 0.1745
vn 0.9725 -0.1629 0.1667
vn 0.9511 0.0469 0.3052
vn 0.9293 -0.0947 0.3569
vn 0.0833 0.1428 0.9862
vn 0.1879 0.4981 0.8465
vn 0.7618 0.2311 0.6052
vn 0.8158 0.1260 0.5644
vn 0.8845 0.0196 0.4661
vn 0.7450 -0.5112 0.4286
vn 0.5322 -0.0851 0.8423
vn 0.4869 -0.1492 0.8606
vn 0.1652 -0.1557 -0.9739
vn 0.2546 0.1833 -0.9495
vn 0.2659 0.1610 -0.9505
vn 0.2259 0.0178 -0.9740
vn 0.2301 -0.1114 -0.9668
vn 0.2842 -0.3126 -0.9064
vn 0.3028 0.0290 -0.9526
vn 0.2819 -0.0388 -0.9587
vn -0.2541 -0.1271 -0.9588
vn -0.3655 -0.2011 -0.9088
vn 0.0385 -0.2142 -0.9760
vn 0.0056 -0.5342 -0.8453
vn 0.2562 -0.3511 -0.9006
vn -0.2537 -0.1983 -0.9467
vn -0.3739 -0.2386 -0.8963
vn -0.2983 -0.2386 -0.9242
vn 0.4189 -0.1472 -0.8960
vn 0.5179 0.0421 -0.8544
vn -0.2162 -0.4033 -0.8892
vn -0.3583 -0.3983 -0.8444
vn -0.2848 -0.4091 -0.8669
vn 0.4143 -0.2971 -0.8603
vn 0.5253 -0.2825 -0.8027
vn -0.2430 -0.1800 -0.9532
vn -0.4041 -0.1198 -0.9068
vn -0.2909 -0.1093 -0.9505
vn 0.4163 -0.1485 -0.8970
vn 0.5376 -0.1050 -0.8367
vn -0.2493 0.1897 -0.9497
vn -0.3915 0.2421 -0.8878
vn -0.2553 0.2625 -0.9305
vn 0.4510 0.1611 -0.8779
vn 0.5389 0.0579 -0.8404
vn -0.2311 0.2230 -0.9470
vn -0.3558 0.2873 -0.8893
vn -0.2200 0.2833 -0.9334
vn 0.3804 0.2792 -0.8817
vn 0.4631 0.1256 -0.8773
vn -0.2513 -0.0402 -0.9671
vn -0.3427 0.2056 -0.9167
vn -0.1872 0.2832 -0.9406
vn 0.2455 0.3116 -0.9180
vn 0.4773 0.2471 -0.8433
vn -0.0843 -0.2647 -0.9607
vn -0.2246 -0.2055 -0.9525
vn -0.0765 -0.0438 -0.9961
vn 0.1876 0.0464 -0.9812
vn 0.1965 0.0110 -0.9804
vn -0.5733 -0.2815 0.7694
vn -0.8584 -0.3477 0.3771
vn -0.1252 -0.8226 0.5547
vn 0.0852 -0.8035 0.5892
vn 0.7259 -0.6637 0.1806
vn -0.5692 -0.2777 0.7739
vn -0.8483 -0.3657 0.3830
vn -0.5324 -0.3507 0.7704
vn 0.3122 -0.4981 0.8090
vn 0.7478 -0.1118 0.6545
vn -0.7281 0.0370 0.6845
vn -0.8803 -0.4527 0.1422
vn -0.4650 -0.6527 0.5981
vn 0.1872 -0.6093 0.7705
vn 0.6912 -0.4954 0.5262
vn -0.8765 -0.2267 0.4246
vn -0.8016 0.4125 0.4327
vn -0.5879 0.3519 0.7284
vn 0.4874 0.2205 0.8449
vn 0.7730 -0.0335 0.6335
vn -0.8160 0.3778 0.4374
vn -0.7589 0.4682 0.4525
vn -0.5699 0.5459 0.6142
vn 0.6041 0.4344 0.6681
vn 0.7603 0.3136 0.5689
vn -0.7661 0.4380 0.4704
vn -0.7711 0.4731 0.4261
vn -0.3879 0.5168 0.7632
vn 0.6201 0.4058 0.6714
vn 0.7309 0.3193 0.6032
vn -0.3362 0.6169 0.7116
vn -0.4108 0.7952 0.4459
vn -0.1569 0.9375 0.3106
vn 0.2855 0.8716 0.3985
vn 0.6503 0.6595 0.3771
vn -0.2162 0.2407 0.9462
vn -0.1320 0.3613 0.9231
vn -0.1184 0.3929 0.9119
vn -0.0587 0.3880 0.9198
vn 0.0636 0.1038 0.9926
vn 0.1564 -0.8332 0.5304
vn 0.0557 -0.9002 0.4319
vn -0.0272 -0.9121 0.4090
vn -0.1770 -0.8993 0.4000
vn -0.1752 -0.9014 0.3959
vn -0.1136 0.6888 0.7160
vn -0.2410 0.7572 0.6071
vn -0.1614 0.7867 0.5959
vn 0.0397 0.8056 0.5912
vn 0.2254 0.7753 0.5900
vn -0.5770 -0.2593 0.7745
vn -0.3342 -0.5457 0.7685
vn -0.0312 -0.7032 0.7103
vn 0.2735 -0.6033 0.7492
vn 0.2064 -0.2848 0.9361
vn 0.0658 0.1101 -0.9917
vn 0.0732 -0.1622 -0.9840
vn 0.0186 -0.4161 -0.9091
vn 0.0004 -0.4329 -0.9015
vn -0.0130 -0.4249 -0.9051
vn 0.4489 0.8792 -0.1596
vn 0.1226 0.9771 -0.1739
vn -0.0795 0.9864 -0.1436
vn -0.3063 0.9439 -0.1232
vn -0.0448 0.9925 -0.1137
vn -0.1846 -0.9784 -0.0926
vn -0.1823 -0.9790 -0.0913
vn -0.0405 -0.9949 -0.0926
vn 0.0475 -0.9939 -0.1000
vn 0.1489 -0.9812 -0.1231
vn 0.9958 -0.0874 -0.0274
vn 0.9964 0.0823 -0.0219
vn 0.9883 -0.0322 -0.1492
vn 0.9814 -0.1075 -0.1592
vn 0.9800 -0.1191 -0.1592
vn 0.9937 -0.0187 -0.1107
vn 0.9929 0.1188 -0.0056
vn 0.9898 0.1348 -0.0455
vn -0.8264 -0.3661 0.4278
vn -0.8269 -0.3776 0.4167
vn -0.9047 -0.0516 0.4230
vn -0.9096 0.0680 0.4100
vn -0.8345 0.3750 0.4037
vn -0.8538 0.3901 0.3448
vn -0.8533 0.4372 0.2840
vn -0.7948 0.3700 0.4811
vn -0.8632 -0.2803 0.4200
vn -0.1408 -0.9861 -0.0876
vn 0.9726 -0.1955 -0.1256
vn 0.1747 0.9743 -0.1419
vn 0.2883 0.0414 -0.9566
vn 0.2752 -0.1462 0.9502
vn 0.3761 0.5524 0.7439
vn 0.9476 0.1449 0.2847
vn -0.3127 -0.8493 0.4253
vn -0.9954 -0.0948 0.0138
vn -0.9875 0.1394 0.0739
vn -0.9795 0.1116 0.1675
vn -0.9623 0.2706 -0.0265
vn -0.9088 0.4169 -0.0170
vn -0.9817 0.1853 -0.0434
vn -0.9899 -0.1391 0.0254
vn -0.8805 -0.4740 0.0015
vn -0.9234 -0.3836 -0.0105
vn 0.8798 0.2164 0.4232
vn 0.8858 0.3571 0.2965
vn 0.9607 0.1327 0.2437
vn 0.9815 0.0492 0.1850
vn 0.9847 -0.0305 0.1717
vn 0.9234 -0.2894 0.2520
vn 0.9667 -0.0538 0.2502
vn 0.9320 -0.1494 0.3303
vn -0.0028 0.2315 0.9728
vn 0.6993 0.6272 0.3430
vn 0.8065 0.2847 0.5181
vn 0.8686 0.2383 0.4344
vn 0.8365 -0.0859 0.5412
vn 0.5373 -0.1558 0.8289
vn 0.4846 -0.1382 0.8638
vn 0.4791 -0.1579 0.8634
vn 0.1346 -0.1305 -0.9823
vn 0.1196 -0.0280 -0.9924
vn 0.2596 0.1518 -0.9537
vn 0.2748 0.0778 -0.9584
vn 0.2925 -0.1937 -0.9365
vn 0.2749 -0.3007 -0.9132
vn 0.3032 0.0285 -0.9525
vn 0.3001 -0.0223 -0.9537
vn -0.2164 -0.1593 -0.9632
vn -0.3347 -0.2355 -0.9124
vn -0.2719 -0.4853 -0.8310
vn 0.2540 -0.3509 -0.9013
vn 0.5246 -0.0634 -0.8490
vn -0.2427 -0.2090 -0.9473
vn -0.3672 -0.2463 -0.8969
vn -0.2886 -0.2493 -0.9244
vn 0.2494 0.0100 -0.9683
vn 0.5039 0.0556 -0.8619
vn -0.2113 -0.3938 -0.8946
vn -0.3653 -0.4089 -0.8363
vn -0.2630 -0.3797 -0.8870
vn 0.4231 -0.3060 -0.8528
vn 0.5300 -0.2885 -0.7974
vn -0.2324 -0.1656 -0.9584
vn -0.3764 -0.0883 -0.9222
vn -0.2421 -0.0561 -0.9686
vn 0.4567 -0.1001 -0.8840
vn 0.5333 -0.0985 -0.8402
vn -0.2327 0.2037 -0.9510
vn -0.3555 0.2779 -0.8924
vn -0.2205 0.2957 -0.9295
vn 0.3816 0.0957 -0.9194
vn 0.4600 -0.0267 -0.8875
vn -0.2003 0.2437 -0.9489
vn -0.3459 0.2957 -0.8905
vn -0.1885 0.3149 -0.9302
vn 0.2438 0.1448 -0.9590
vn 0.4780 0.1425 -0.8667
vn 0.0189 0.1836 -0.9828
vn -0.2512 0.2889 -0.9238
vn -0.1066 0.3532 -0.9295
vn 0.1984 0.2720 -0.9416
vn 0.4132 0.1784 -0.8930
vn -0.0362 -0.2253 -0.9736
vn -0.0105 -0.0545 -0.9985
vn 0.1364 0.0560 -0.9891
vn 0.1259 0.0218 -0.9918
vn 0.3791 -0.1556 -0.9122
vn -0.5797 -0.2757 0.7668
vn -0.3872 -0.8426 0.3743
vn -0.0658 -0.8531 0.5176
vn 0.1408 -0.8469 0.5127
vn 0.1955 -0.1310 0.9719
vn -0.5729 -0.2747 0.7722
vn -0.8584 -0.3486 0.3764
vn -0.0375 -0.6424 0.7654
vn 0.0960 -0.3309 0.9388
vn 0.7512 -0.1154 0.6499
vn -0.5733 -0.1314 0.8087
vn -0.8771 -0.1715 0.4487
vn -0.5376 -0.6735 0.5073
vn 0.2966 -0.6791 0.6715
vn 0.7148 -0.5321 0.4537
vn -0.7286 0.0053 0.6849
vn -0.9859 -0.0561 0.1575
vn -0.4533 0.4347 0.7782
vn 0.1803 -0.0521 0.9822
vn 0.7738 -0.0326 0.6326
vn -0.8277 0.4487 0.3369
vn -0.7751 0.4936 0.3944
vn -0.5657 0.5407 0.6226
vn 0.4815 0.2803 0.8305
vn 0.7598 0.3130 0.5698
vn -0.7901 0.4629 0.4018
vn -0.7592 0.4668 0.4536
vn -0.5595 0.6258 0.5434
vn 0.6090 0.3989 0.6856
vn 0.7594 0.3357 0.5573
vn -0.6929 0.6580 0.2948
vn -0.6894 0.7197 0.0823
vn -0.3835 0.9164 0.1148
vn 0.5678 0.8033 0.1798
vn 0.7517 0.6117 0.2465
vn -0.1486 0.3344 0.9307
vn -0.1874 0.2270 0.9557
vn -0.1376 0.3635 0.9214
vn 0.0841 0.1073 0.9907
vn 0.0455 0.1400 0.9891
vn 0.3555 -0.8419 0.4060
vn 0.0868 -0.9070 0.4121
vn 0.0057 -0.9069 0.4213
vn -0.1153 -0.9001 0.4202
vn -0.1654 -0.9023 0.3982
vn -0.3759 0.6929 0.6153
vn -0.2573 0.7579 0.5995
vn -0.1482 0.7848 0.6018
vn 0.0776 0.7922 0.6053
vn 0.3977 0.6490 0.6485
vn -0.2718 -0.5381 0.7978
vn -0.1310 -0.7149 0.6868
vn -0.0877 -0.6518 0.7533
vn 0.0714 -0.3400 0.9377
vn 0.1209 -0.1642 0.9790
vn -0.2192 -0.1360 -0.9661
vn -0.3473 -0.3642 -0.8641
vn 0.0480 -0.4372 -0.8981
vn 0.0104 -0.4282 -0.9036
vn 0.2514 -0.2615 -0.9319
vn 0.4547 0.8768 -0.1562
vn 0.1717 0.9738 -0.1493
vn -0.1014 0.9826 -0.1557
vn -0.3431 0.9348 -0.0924
vn -0.2455 0.9684 0.0433
vn -0.1815 -0.9791 -0.0914
vn -0.1549 -0.9846 -0.0809
vn -0.0338 -0.9954 -0.0900
vn 0.0511 -0.9938 -0.0984
vn 0.1245 -0.9866 -0.1058
vn 0.9935 -0.1127 -0.0147
vn 0.9987 0.0495 -0.0070
vn 0.9776 -0.2040 -0.0514
vn 0.9811 -0.1194 -0.1525
vn 0.9931 -0.0368 -0.1111
vn 0.9886 0.1501 0.0064
vn 0.9943 0.1070 0.0006
vn 0.9965 0.0828 -0.0111
vn -0.8402 -0.3466 0.4170
vn -0.8266 -0.3780 0.4169
vn -0.9130 -0.0175 0.4075
vn -0.9116 0.0600 0.4067
vn -0.8059 0.4816 0.3443
vn -0.8246 0.4866 0.2885
vn -0.8889 0.1784 0.4220
vn -0.8184 0.0377 0.5734
vn -0.8756 -0.0553 0.4799
vn -0.1574 -0.9830 -0.0941
vn 0.9996 -0.0291 -0.0046
vn 0.4127 0.9108 -0.0085
usemtl Material
s off
f 136//1 3//1 46//1
f 100//2 7//2 40//2
f 55//3 142//3 170//3
f 160//4 7//4 143//4
f 165//5 8//5 144//5
f 16//6 144//6 152//6
f 141//7 9//7 145//7
f 145//8 10//8 146//8
f 10//9 147//9 146//9
f 147//10 12//10 148//10
f 148//11 13//11 149//11
f 149//12 14//12 150//12
f 150//13 15//13 151//13
f 151//14 16//14 152//14
f 6//15 153//15 142//15
f 33//16 154//16 153//16
f 34//17 155//17 154//17
f 35//18 156//18 155//18
f 36//19 157//19 156//19
f 37//20 158//20 157//20
f 158//21 39//21 159//21
f 159//22 40//22 160//22
f 65//23 6//23 55//23
f 65//24 34//24 33//24
f 70//25 35//25 34//25
f 75//26 36//26 35//26
f 80//27 37//27 36//27
f 90//28 37//28 85//28
f 90//29 39//29 38//29
f 95//30 40//30 39//30
f 2//31 101//31 45//31
f 101//32 18//32 106//32
f 106//33 19//33 111//33
f 111//34 20//34 116//34
f 20//35 121//35 116//35
f 21//36 126//36 121//36
f 22//37 131//37 126//37
f 131//38 24//38 136//38
f 135//39 16//39 15//39
f 134//40 140//40 135//40
f 134//41 138//41 139//41
f 133//42 137//42 138//42
f 132//43 136//43 137//43
f 130//44 15//44 14//44
f 129//45 135//45 130//45
f 128//46 134//46 129//46
f 127//47 133//47 128//47
f 126//48 132//48 127//48
f 13//49 130//49 14//49
f 125//50 129//50 130//50
f 124//51 128//51 129//51
f 122//52 128//52 123//52
f 121//53 127//53 122//53
f 12//54 125//54 13//54
f 120//55 124//55 125//55
f 119//56 123//56 124//56
f 118//57 122//57 123//57
f 116//58 122//58 117//58
f 11//59 120//59 12//59
f 115//60 119//60 120//60
f 114//61 118//61 119//61
f 113//62 117//62 118//62
f 112//63 116//63 117//63
f 10//64 115//64 11//64
f 110//65 114//65 115//65
f 109//66 113//66 114//66
f 108//67 112//67 113//67
f 107//68 111//68 112//68
f 9//69 110//69 10//69
f 105//70 109//70 110//70
f 104//71 108//71 109//71
f 103//72 107//72 108//72
f 102//73 106//73 107//73
f 1//74 105//74 9//74
f 41//75 104//75 105//75
f 42//76 103//76 104//76
f 43//77 102//77 103//77
f 45//78 102//78 44//78
f 32//79 91//79 31//79
f 96//80 92//80 91//80
f 97//81 93//81 92//81
f 98//82 94//82 93//82
f 99//83 95//83 94//83
f 31//84 86//84 30//84
f 91//85 87//85 86//85
f 92//86 88//86 87//86
f 93//87 89//87 88//87
f 94//88 90//88 89//88
f 30//89 81//89 29//89
f 81//90 87//90 82//90
f 82//91 88//91 83//91
f 88//92 84//92 83//92
f 89//93 85//93 84//93
f 28//94 81//94 76//94
f 76//95 82//95 77//95
f 77//96 83//96 78//96
f 78//97 84//97 79//97
f 79//98 85//98 80//98
f 28//99 71//99 27//99
f 76//100 72//100 71//100
f 77//101 73//101 72//101
f 73//102 79//102 74//102
f 74//103 80//103 75//103
f 27//104 66//104 26//104
f 71//105 67//105 66//105
f 72//106 68//106 67//106
f 68//107 74//107 69//107
f 69//108 75//108 70//108
f 26//109 61//109 25//109
f 66//110 62//110 61//110
f 67//111 63//111 62//111
f 63//112 69//112 64//112
f 64//113 70//113 65//113
f 5//114 61//114 51//114
f 51//115 62//115 52//115
f 52//116 63//116 53//116
f 63//117 54//117 53//117
f 64//118 55//118 54//118
f 7//119 161//119 143//119
f 56//120 162//120 161//120
f 162//121 58//121 163//121
f 163//122 59//122 164//122
f 164//123 60//123 165//123
f 5//124 166//124 141//124
f 51//125 167//125 166//125
f 52//126 168//126 167//126
f 53//127 169//127 168//127
f 54//128 170//128 169//128
f 8//129 96//129 32//129
f 60//130 97//130 96//130
f 59//131 98//131 97//131
f 58//132 99//132 98//132
f 57//133 100//133 99//133
f 16//134 50//134 4//134
f 140//135 49//135 50//135
f 138//136 49//136 139//136
f 138//137 47//137 48//137
f 137//138 46//138 47//138
f 169//139 45//139 44//139
f 168//140 44//140 43//140
f 167//141 43//141 42//141
f 41//142 167//142 42//142
f 1//143 166//143 41//143
f 49//144 165//144 50//144
f 48//145 164//145 49//145
f 47//146 163//146 48//146
f 46//147 162//147 47//147
f 143//148 46//148 3//148
f 159//149 24//149 23//149
f 158//150 23//150 22//150
f 157//151 22//151 21//151
f 156//152 21//152 20//152
f 19//153 156//153 20//153
f 18//154 155//154 19//154
f 153//155 18//155 17//155
f 142//156 17//156 2//156
f 31//157 152//157 32//157
f 30//158 151//158 31//158
f 29//159 150//159 30//159
f 148//160 29//160 28//160
f 27//161 148//161 28//161
f 26//162 147//162 27//162
f 25//163 146//163 26//163
f 5//164 145//164 25//164
f 152//165 8//165 32//165
f 50//166 144//166 4//166
f 24//167 143//167 3//167
f 170//168 2//168 45//168
f 136//169 24//169 3//169
f 100//170 56//170 7//170
f 55//171 6//171 142//171
f 160//172 40//172 7//172
f 165//173 60//173 8//173
f 16//174 4//174 144//174
f 141//175 1//175 9//175
f 145//176 9//176 10//176
f 10//177 11//177 147//177
f 147//178 11//178 12//178
f 148//179 12//179 13//179
f 149//180 13//180 14//180
f 150//181 14//181 15//181
f 151//182 15//182 16//182
f 6//183 33//183 153//183
f 33//184 34//184 154//184
f 34//185 35//185 155//185
f 35//186 36//186 156//186
f 36//187 37//187 157//187
f 37//188 38//188 158//188
f 158//189 38//189 39//189
f 159//190 39//190 40//190
f 65//191 33//191 6//191
f 65//192 70//192 34//192
f 70//193 75//193 35//193
f 75//194 80//194 36//194
f 80//195 85//195 37//195
f 90//196 38//196 37//196
f 90//197 95//197 39//197
f 95//198 100//198 40//198
f 2//199 17//199 101//199
f 101//200 17//200 18//200
f 106//201 18//201 19//201
f 111//202 19//202 20//202
f 20//203 21//203 121//203
f 21//204 22//204 126//204
f 22//205 23//205 131//205
f 131//206 23//206 24//206
f 135//207 140//207 16//207
f 134//208 139//208 140//208
f 134//209 133//209 138//209
f 133//210 132//210 137//210
f 132//211 131//211 136//211
f 130//212 135//212 15//212
f 129//213 134//213 135//213
f 128//214 133//214 134//214
f 127//215 132//215 133//215
f 126//216 131//216 132//216
f 13//217 125//217 130//217
f 125//218 124//218 129//218
f 124//219 123//219 128//219
f 122//220 127//220 128//220
f 121//221 126//221 127//221
f 12//222 120//222 125//222
f 120//223 119//223 124//223
f 119//224 118//224 123//224
f 118//225 117//225 122//225
f 116//226 121//226 122//226
f 11//227 115//227 120//227
f 115//228 114//228 119//228
f 114//229 113//229 118//229
f 113//230 112//230 117//230
f 112//231 111//231 116//231
f 10//232 110//232 115//232
f 110//233 109//233 114//233
f 109//234 108//234 113//234
f 108//235 107//235 112//235
f 107//236 106//236 111//236
f 9//237 105//237 110//237
f 105//238 104//238 109//238
f 104//239 103//239 108//239
f 103//240 102//240 107//240
f 102//241 101//241 106//241
f 1//242 41//242 105//242
f 41//243 42//243 104//243
f 42//244 43//244 103//244
f 43//245 44//245 102//245
f 45//246 101//246 102//246
f 32//247 96//247 91//247
f 96//248 97//248 92//248
f 97//249 98//249 93//249
f 98//250 99//250 94//250
f 99//251 100//251 95//251
f 31//252 91//252 86//252
f 91//253 92//253 87//253
f 92//254 93//254 88//254
f 93//255 94//255 89//255
f 94//256 95//256 90//256
f 30//257 86//257 81//257
f 81//258 86//258 87//258
f 82//259 87//259 88//259
f 88//260 89//260 84//260
f 89//261 90//261 85//261
f 28//262 29//262 81//262
f 76//263 81//263 82//263
f 77//264 82//264 83//264
f 78//265 83//265 84//265
f 79//266 84//266 85//266
f 28//267 76//267 71//267
f 76//268 77//268 72//268
f 77//269 78//269 73//269
f 73//270 78//270 79//270
f 74//271 79//271 80//271
f 27//272 71//272 66//272
f 71//273 72//273 67//273
f 72//274 73//274 68//274
f 68//275 73//275 74//275
f 69//276 74//276 75//276
f 26//277 66//277 61//277
f 66//278 67//278 62//278
f 67//279 68//279 63//279
f 63//280 68//280 69//280
f 64//281 69//281 70//281
f 5//282 25//282 61//282
f 51//283 61//283 62//283
f 52//284 62//284 63//284
f 63//285 64//285 54//285
f 64//286 65//286 55//286
f 7//287 56//287 161//287
f 56//288 57//288 162//288
f 162//289 57//289 58//289
f 163//290 58//290 59//290
f 164//291 59//291 60//291
f 5//292 51//292 166//292
f 51//293 52//293 167//293
f 52//294 53//294 168//294
f 53//295 54//295 169//295
f 54//296 55//296 170//296
f 8//297 60//297 96//297
f 60//298 59//298 97//298
f 59//299 58//299 98//299
f 58//300 57//300 99//300
f 57//301 56//301 100//301
f 16//302 140//302 50//302
f 140//303 139//303 49//303
f 138//304 48//304 49//304
f 138//305 137//305 47//305
f 137//306 136//306 46//306
f 169//307 170//307 45//307
f 168//308 169//308 44//308
f 167//309 168//309 43//309
f 41//310 166//310 167//310
f 1//311 141//311 166//311
f 49//312 164//312 165//312
f 48//313 163//313 164//313
f 47//314 162//314 163//314
f 46//315 161//315 162//315
f 143//316 161//316 46//316
f 159//317 160//317 24//317
f 158//318 159//318 23//318
f 157//319 158//319 22//319
f 156//320 157//320 21//320
f 19//321 155//321 156//321
f 18//322 154//322 155//322
f 153//323 154//323 18//323
f 142//324 153//324 17//324
f 31//325 151//325 152//325
f 30//326 150//326 151//326
f 29//327 149//327 150//327
f 148//328 149//328 29//328
f 27//329 147//329 148//329
f 26//330 146//330 147//330
f 25//331 145//331 146//331
f 5//332 141//332 145//332
f 152//333 144//333 8//333
f 50//334 165//334 144//334
f 24//335 160//335 143//335
f 170//336 142//336 2//336
