# Blender v2.79 (sub 0) OBJ File: ''
# www.blender.org
mtllib tapis.mtl
o Plane.001
v 0.865028 -2.162027 0.019345
v 0.865028 -0.073442 0.019345
v -0.104421 -2.162027 0.019345
v -0.104421 -0.073442 0.019345
vn 0.0000 0.0000 1.0000
usemtl Material.001
s off
f 2//1 3//1 1//1
f 2//1 4//1 3//1
o Plane.002
v 0.858312 0.082478 0.019345
v 0.858312 2.171062 0.019345
v -0.111137 0.082478 0.019345
v -0.111137 2.171062 0.019345
vn 0.0000 0.0000 1.0000
usemtl Material.001
s off
f 6//2 7//2 5//2
f 6//2 8//2 7//2
o Plane.003
v 1.632922 -1.209125 0.019345
v 1.632922 0.292165 0.019345
v 0.936075 -1.209125 0.019345
v 0.936075 0.292165 0.019345
vn 0.0000 0.0000 1.0000
usemtl Material.001
s off
f 10//3 11//3 9//3
f 10//3 12//3 11//3
