# Blender v2.79 (sub 0) OBJ File: ''
# www.blender.org
mtllib under.mtl
o Cube_Cube.002
v 1.000000 -1.000000 0.946095
v 1.000000 -1.000000 1.000000
v -1.000000 -1.000000 0.946095
v -1.000000 -1.000000 1.000000
v 1.000000 1.000000 0.946095
v 1.000000 1.000000 1.000000
v -1.000000 1.000000 0.946095
v -1.000000 1.000000 1.000000
v 0.000000 -1.000000 1.000000
v 0.000000 0.763062 0.658386
v 0.000000 1.000000 1.000000
v 0.460308 -0.079385 -0.678540
v 0.539692 -0.079385 -0.678540
v 0.539692 0.079385 -0.678540
v 0.460308 0.079385 -0.678540
v 0.000000 -0.700984 0.658386
v -0.520643 0.041286 0.062310
v -0.520643 -0.041286 0.062310
v -0.479357 0.041286 0.062310
v -0.479357 -0.041286 0.062310
vn 0.0355 -0.7520 -0.6582
vn -1.0000 0.0000 0.0000
vn -0.0307 0.8213 -0.5697
vn 1.0000 0.0000 0.0000
vn 0.0000 0.8903 -0.4553
vn 0.0307 0.8213 -0.5697
vn -0.0355 -0.7520 -0.6582
vn 0.0000 0.0000 -1.0000
vn 0.9621 0.0000 -0.2726
vn -0.9455 0.0000 -0.3255
vn -0.1300 -0.8780 -0.4607
vn -0.0588 0.6606 -0.7485
vn 0.0000 -0.6704 -0.7420
vn -0.8790 0.0000 -0.4768
vn 0.7793 0.0000 -0.6267
vn 0.0000 -1.0000 0.0000
vn 0.0000 1.0000 0.0000
vn -0.0705 0.8763 -0.4766
vn 0.0000 -0.9068 -0.4216
vn 0.0000 0.6368 -0.7711
vn -0.0105 -0.6749 -0.7378
usemtl Material
s off
f 9//1 3//1 16//1
f 4//2 7//2 3//2
f 11//3 5//3 10//3
f 6//4 1//4 5//4
f 10//5 14//5 15//5
f 7//6 11//6 10//6
f 1//7 9//7 16//7
f 15//8 13//8 12//8
f 1//9 14//9 5//9
f 16//10 15//10 12//10
f 16//11 13//11 1//11
f 10//12 17//12 7//12
f 17//8 20//8 18//8
f 16//13 18//13 20//13
f 7//14 18//14 3//14
f 16//15 19//15 10//15
f 9//16 4//16 3//16
f 4//2 8//2 7//2
f 11//17 6//17 5//17
f 6//4 2//4 1//4
f 10//18 5//18 14//18
f 7//17 8//17 11//17
f 1//16 2//16 9//16
f 15//8 14//8 13//8
f 1//9 13//9 14//9
f 16//10 10//10 15//10
f 16//19 12//19 13//19
f 10//20 19//20 17//20
f 17//8 19//8 20//8
f 16//21 3//21 18//21
f 7//14 17//14 18//14
f 16//15 20//15 19//15
